<?xml version="1.0" standalone="no"?>
<!DOCTYPE svg PUBLIC "-//W3C//DTD SVG 20010904//EN"
 "http://www.w3.org/TR/2001/REC-SVG-20010904/DTD/svg10.dtd">
<svg version="1.0" xmlns="http://www.w3.org/2000/svg"
 width="460.000000pt" height="460.000000pt" viewBox="0 0 460.000000 460.000000"
 preserveAspectRatio="xMidYMid meet">
<metadata>
Created by potrace 1.14, written by Peter Selinger 2001-2017
</metadata>
<g transform="translate(0.000000,460.000000) scale(0.100000,-0.100000)"
fill="#000000" stroke="none">
<path d="M1963 4493 c-44 -60 -93 -120 -108 -135 -26 -26 -122 -78 -144 -78
-5 0 -11 -4 -13 -8 -1 -4 -30 -20 -63 -36 -33 -16 -72 -35 -87 -42 -14 -8 -30
-14 -36 -14 -10 0 -37 -22 -138 -112 -35 -32 -68 -58 -74 -58 -6 0 -44 -33
-84 -72 -104 -104 -282 -248 -307 -248 -4 0 -14 -6 -21 -13 -7 -7 -34 -29 -59
-50 -38 -30 -48 -47 -61 -94 -29 -104 -39 -147 -48 -196 -5 -27 -13 -54 -19
-60 -5 -7 -18 -38 -29 -69 -11 -32 -37 -84 -56 -117 -25 -41 -36 -71 -36 -98
0 -21 -6 -47 -13 -58 -8 -11 -19 -69 -26 -130 -13 -121 -2 -254 24 -306 8 -15
15 -36 15 -46 0 -10 6 -38 14 -63 54 -173 72 -254 86 -385 23 -213 40 -351 46
-377 8 -37 -4 -98 -20 -98 -7 0 -25 -14 -42 -31 -16 -17 -37 -34 -47 -38 -18
-7 -17 -9 8 -39 18 -22 36 -32 55 -32 38 0 60 9 60 26 0 30 19 11 44 -45 14
-32 26 -63 26 -69 0 -26 112 -229 194 -352 70 -105 121 -167 230 -278 78 -79
150 -148 161 -153 66 -33 91 -50 128 -90 61 -64 148 -119 188 -119 17 0 99
-73 99 -88 0 -23 35 -92 47 -92 8 0 11 -4 8 -10 -3 -5 3 -10 14 -10 13 0 21
-6 21 -18 0 -10 7 -27 15 -39 8 -12 12 -28 9 -36 -4 -13 27 -15 225 -16 213
-2 230 -1 233 16 3 13 -5 21 -27 29 -16 6 -39 24 -50 42 -20 31 -53 49 -135
75 -51 16 -65 42 -25 49 14 3 60 2 103 -3 110 -11 201 -11 284 2 69 11 172 43
192 61 6 4 16 8 24 8 35 0 111 43 121 68 12 33 40 226 38 265 -2 26 5 33 62
64 35 19 81 41 102 50 44 17 50 13 95 -53 30 -44 30 -67 -1 -108 -14 -18 -25
-42 -25 -54 0 -19 3 -18 34 11 19 18 54 58 79 89 28 36 72 76 123 109 85 56
98 65 193 130 34 23 78 45 98 48 35 6 50 21 83 86 11 22 21 39 62 102 16 23
32 52 38 65 5 13 14 30 19 38 62 109 151 367 151 438 0 16 6 47 14 68 12 34
26 224 28 377 0 29 10 68 24 98 13 27 24 59 24 71 0 22 6 44 46 163 25 77 28
128 10 183 -9 27 -21 72 -26 98 -17 92 -32 159 -45 209 -8 28 -17 72 -20 99
-4 27 -10 56 -15 65 -5 9 -18 50 -30 91 -13 41 -28 91 -35 110 -8 19 -16 48
-20 64 -3 16 -18 41 -33 55 -31 29 -58 87 -67 143 -7 48 -54 105 -224 281
-172 177 -152 161 -273 225 -57 30 -128 69 -159 87 -31 18 -66 36 -78 40 -11
3 -21 10 -21 15 0 5 -13 11 -30 15 -16 4 -30 11 -30 15 0 5 -17 14 -37 20 -21
6 -52 18 -69 28 -18 9 -58 30 -90 47 -33 16 -65 36 -72 42 -7 7 -20 13 -29 13
-8 0 -70 56 -137 125 l-123 125 -230 0 -229 0 -81 -107z m740 -1049 c86 -8
169 -19 184 -25 15 -5 94 -17 177 -25 82 -8 153 -17 158 -20 9 -6 106 -19 248
-34 134 -14 140 -16 140 -46 0 -13 -7 -27 -15 -30 -27 -11 -16 -38 38 -96 55
-59 83 -78 116 -78 28 0 34 -14 42 -100 11 -121 37 -270 48 -284 6 -7 14 -35
17 -62 5 -43 13 -90 30 -172 4 -19 9 -23 28 -18 32 8 36 -9 36 -179 0 -77 5
-158 11 -180 36 -136 43 -180 43 -268 l1 -98 -45 -43 c-64 -63 -90 -96 -96
-125 -8 -43 -45 -107 -67 -117 -11 -5 -27 -27 -36 -49 -15 -37 -27 -57 -71
-116 -16 -22 -42 -27 -77 -15 -18 6 -30 0 -58 -28 -19 -19 -35 -39 -35 -43 0
-4 -15 -18 -33 -30 -25 -17 -48 -23 -89 -23 -53 0 -57 -2 -110 -55 l-55 -55
-64 0 c-37 1 -75 7 -89 15 -44 25 -79 19 -94 -15 l-12 -30 -20 27 c-11 16 -23
36 -27 45 -9 24 -50 43 -137 63 -41 9 -92 23 -113 31 -20 8 -48 14 -62 14 -13
0 -39 6 -57 14 -103 42 -175 55 -195 35 -8 -8 -24 -3 -59 17 l-47 28 -230 3
c-249 4 -265 1 -289 -53 -17 -36 -36 -30 -40 13 -3 36 -5 38 -38 41 -25 2 -46
-4 -70 -22 -57 -41 -138 -78 -158 -72 -10 4 -33 20 -50 37 -27 27 -37 31 -67
26 -19 -3 -42 -13 -51 -21 -25 -25 -58 -19 -97 19 -42 40 -59 43 -86 14 -12
-14 -26 -19 -38 -15 -22 7 -70 75 -79 112 -3 13 -19 33 -35 45 -16 11 -29 26
-29 34 0 7 -7 26 -15 41 -8 16 -15 39 -15 51 0 13 -20 43 -46 70 -86 90 -100
158 -69 333 10 56 15 152 15 282 0 187 1 198 24 245 19 38 26 77 36 193 9 101
18 156 31 182 10 20 25 76 34 125 15 91 13 88 91 154 10 9 39 46 64 81 25 36
63 76 87 91 27 16 43 34 43 46 0 11 4 22 8 25 22 14 169 36 272 41 63 3 187
17 275 30 286 44 637 51 968 19z m-965 -2329 c52 -21 58 -21 55 1 -2 29 41 38
114 25 38 -7 104 -19 148 -26 44 -7 93 -18 108 -24 16 -6 66 -11 112 -11 46 0
96 -5 112 -11 31 -12 162 -36 263 -49 116 -15 203 -39 230 -65 14 -13 37 -28
53 -34 23 -9 27 -16 27 -50 0 -22 -5 -43 -10 -46 -6 -4 -16 -21 -24 -39 -29
-70 -206 -206 -269 -206 -8 0 -19 -4 -22 -10 -3 -5 -33 -10 -66 -10 -107 0
-140 48 -74 109 39 35 41 40 21 66 -12 17 -18 17 -72 6 -70 -16 -100 -17 -177
-6 -47 6 -62 4 -74 -8 -20 -20 -10 -49 27 -70 39 -23 42 -64 5 -73 -37 -9
-130 5 -178 27 -23 10 -69 39 -102 64 -33 25 -63 45 -68 45 -11 0 -77 62 -77
72 0 5 -13 26 -29 46 -50 62 -91 197 -89 287 0 33 3 49 5 35 3 -19 15 -30 51
-45z m200 -889 c7 -8 -9 -26 -22 -26 -7 0 -21 10 -32 22 l-19 21 34 -7 c19 -3
36 -8 39 -10z m63 -24 c34 2 47 -3 52 -22 3 -11 2 -22 -1 -24 -16 -10 -62 8
-67 25 -4 10 -13 19 -21 19 -15 0 -19 12 -7 24 4 4 12 0 18 -8 6 -8 18 -14 26
-14z"/>
<path d="M1615 2930 c-59 -9 -135 -31 -190 -55 -86 -37 -196 -143 -241 -233
-15 -29 -30 -55 -34 -57 -5 -3 -11 -24 -15 -48 -3 -23 -8 -51 -11 -62 -2 -11
-1 -14 2 -7 3 6 11 12 18 12 6 0 31 26 55 58 39 51 128 132 146 132 4 0 21 6
38 14 92 42 270 52 440 26 l88 -14 24 29 c19 24 24 42 25 86 0 50 -3 58 -34
88 -35 34 -35 34 -148 37 -62 1 -135 -1 -163 -6z"/>
<path d="M2600 2671 c-32 -27 -35 -33 -35 -83 1 -80 51 -143 171 -217 28 -17
57 -31 64 -31 6 0 26 -6 43 -14 33 -15 98 -28 222 -46 185 -27 275 -42 327
-53 58 -14 88 -8 88 18 0 17 -45 55 -95 79 -22 10 -48 23 -57 27 -10 5 -59 20
-111 33 -234 61 -289 90 -378 202 -92 116 -170 143 -239 85z"/>
<path d="M2919 2021 c-36 -11 -75 -23 -85 -28 -121 -60 -174 -93 -174 -110 0
-7 -4 -13 -10 -13 -5 0 -10 -4 -10 -10 0 -13 35 -13 58 0 42 23 110 48 149 55
37 6 42 4 48 -15 12 -38 -4 -106 -32 -137 -30 -32 -40 -34 -69 -16 -11 7 -24
10 -27 6 -13 -12 -7 -71 8 -87 8 -8 15 -21 15 -29 0 -8 9 -26 20 -40 11 -14
20 -28 20 -31 0 -8 46 -56 54 -56 4 0 14 -6 22 -14 19 -20 86 -29 148 -22 55
7 103 41 140 100 24 38 66 208 66 269 0 58 17 68 68 41 52 -28 62 -41 62 -84
0 -56 18 -59 31 -5 6 25 15 48 20 51 20 12 7 46 -32 84 -23 22 -46 40 -53 40
-6 0 -24 7 -41 16 -91 48 -287 66 -396 35z m245 -297 c11 -4 16 -19 16 -49 0
-40 -24 -105 -38 -105 -4 0 -20 -12 -35 -26 -23 -22 -38 -26 -92 -26 -41 -1
-70 4 -80 12 -10 8 -27 19 -39 25 -24 11 -91 139 -81 155 3 6 17 10 30 10 19
0 28 -9 39 -34 16 -39 82 -86 121 -86 25 0 65 31 65 50 0 8 68 80 76 80 1 0 9
-3 18 -6z"/>
<path d="M1481 1995 c-18 -8 -44 -15 -57 -15 -12 0 -25 -4 -28 -8 -3 -4 -30
-21 -61 -36 -30 -16 -65 -41 -76 -57 l-20 -29 22 -60 c21 -58 39 -71 39 -27 0
43 13 67 36 73 13 3 24 10 24 15 0 13 70 46 116 53 46 8 54 2 75 -56 11 -33
11 -42 -4 -73 -15 -32 -20 -35 -62 -35 -44 0 -45 -1 -45 -32 0 -18 7 -42 15
-52 8 -11 15 -32 15 -47 0 -14 7 -32 15 -39 8 -7 15 -18 15 -24 1 -15 46 -66
59 -66 6 0 14 -8 19 -17 12 -20 115 -30 152 -14 58 25 83 49 134 127 29 45 35
65 44 154 6 56 8 109 5 118 -5 12 -2 14 13 7 29 -13 94 -18 94 -8 0 33 -138
114 -251 147 -72 21 -240 21 -288 1z m60 -295 c10 -6 19 -17 19 -24 0 -23 40
-66 82 -87 36 -18 42 -19 62 -5 13 8 28 28 35 44 7 16 23 34 37 41 13 6 27 18
30 26 9 23 33 18 45 -9 9 -18 7 -32 -10 -67 -41 -87 -99 -129 -177 -129 -40 0
-56 6 -87 31 -20 17 -37 35 -37 40 0 6 -7 17 -15 25 -8 9 -15 26 -15 40 0 13
-6 33 -12 44 -11 17 -10 22 2 30 19 12 17 12 41 0z"/>
<path d="M2040 931 c0 -11 49 -21 55 -11 5 9 -18 20 -41 20 -8 0 -14 -4 -14
-9z"/>
<path d="M2136 898 c7 -10 374 -11 374 0 0 4 -85 7 -189 7 -104 1 -187 -3
-185 -7z"/>
<path d="M3200 144 c-14 -9 -38 -33 -55 -55 -16 -21 -35 -38 -41 -39 -6 0 -21
-11 -34 -25 l-23 -25 116 0 117 0 0 29 c0 23 -44 132 -53 131 -1 0 -13 -8 -27
-16z"/>
<path d="M1515 106 c-2 -6 -6 -32 -10 -58 l-6 -48 68 1 c51 0 62 3 45 9 -24
10 -42 46 -42 84 0 19 -6 24 -26 24 -14 0 -27 -6 -29 -12z"/>
</g>
</svg>
