<?xml version="1.0" standalone="no"?>
<!DOCTYPE svg PUBLIC "-//W3C//DTD SVG 20010904//EN"
 "http://www.w3.org/TR/2001/REC-SVG-20010904/DTD/svg10.dtd">
<svg version="1.0" xmlns="http://www.w3.org/2000/svg"
 width="754.000000pt" height="754.000000pt" viewBox="0 0 754.000000 754.000000"
 preserveAspectRatio="xMidYMid meet">
<metadata>
Created by potrace 1.14, written by Peter Selinger 2001-2017
</metadata>
<g transform="translate(0.000000,754.000000) scale(0.100000,-0.100000)"
fill="#000000" stroke="none">
<path d="M4185 7436 c-31 -15 -84 -57 -138 -110 l-88 -87 -42 34 c-61 49 -109
77 -135 77 -19 0 -76 -23 -91 -36 -3 -3 15 -24 39 -49 l43 -44 -69 27 c-45 17
-81 39 -101 62 l-31 35 -26 -28 c-14 -15 -30 -27 -36 -27 -5 0 -10 -12 -10
-26 0 -26 0 -26 -27 -9 -25 17 -27 17 -40 -1 -7 -10 -13 -22 -13 -28 0 -14
-62 -146 -69 -146 -3 0 -13 4 -20 9 -13 8 -13 16 0 58 10 32 21 48 32 48 21 0
33 14 41 48 7 31 0 33 -48 13 -48 -20 -103 -72 -101 -95 1 -11 10 -30 21 -42
l19 -22 -45 8 c-25 4 -49 7 -55 7 -42 -3 -87 -11 -125 -25 -109 -37 -134 -62
-50 -51 28 4 50 4 50 2 0 -16 -256 -156 -265 -146 -2 2 -6 17 -9 34 -6 26 -3
32 19 42 14 7 32 12 40 12 16 0 40 38 31 48 -4 3 -23 -4 -44 -15 -20 -11 -48
-23 -62 -26 -15 -4 -33 -20 -45 -43 -10 -20 -36 -53 -57 -75 -50 -51 -72 -98
-97 -202 -25 -104 -42 -141 -89 -186 l-35 -35 8 78 c5 61 13 88 36 124 16 25
27 48 24 50 -2 2 -23 -10 -45 -28 -40 -32 -60 -64 -60 -97 0 -13 3 -13 15 -3
21 17 19 10 -9 -41 -13 -24 -29 -69 -36 -99 -7 -30 -17 -61 -23 -68 -6 -8 -7
-54 -3 -126 5 -83 2 -138 -10 -212 -38 -236 -54 -703 -34 -992 12 -168 13
-172 36 -178 13 -3 33 -21 45 -40 11 -19 27 -34 34 -34 7 0 21 -24 31 -52 9
-29 19 -58 23 -63 8 -14 -28 25 -37 40 -14 23 -134 115 -157 121 -17 4 -38 -2
-68 -22 l-44 -27 -6 -116 c-4 -64 -2 -134 3 -156 5 -22 12 -67 15 -100 12
-105 97 -339 135 -375 3 -3 18 -25 32 -50 38 -65 117 -136 167 -149 22 -6 59
-16 81 -21 46 -13 84 -62 106 -142 8 -26 20 -69 28 -95 14 -50 56 -146 107
-248 16 -33 32 -71 34 -85 32 -187 35 -229 29 -343 l-6 -122 73 -86 c114 -133
394 -332 656 -466 51 -26 52 -27 93 -134 47 -118 79 -161 105 -139 8 7 15 21
15 31 0 11 7 19 15 19 8 0 15 5 15 10 0 6 9 10 20 10 13 0 20 7 20 19 0 11 4
22 9 25 13 8 21 49 35 177 9 88 19 129 38 165 31 60 51 67 229 83 152 14 242
32 328 65 91 36 164 96 117 96 -20 0 -286 135 -313 159 -21 18 -23 27 -23 135
0 109 1 116 23 127 12 6 34 23 48 38 15 14 38 36 51 48 14 12 35 42 49 68 19
37 21 47 10 54 -29 18 -322 24 -349 7 -28 -17 22 -119 80 -166 37 -30 38 -33
38 -93 0 -62 -23 -126 -48 -135 -6 -2 -20 15 -32 37 -22 44 -29 48 -49 29 -10
-11 -17 -7 -37 17 -57 71 -87 95 -113 93 -19 -2 -29 4 -39 25 -7 15 -24 32
-37 37 -15 6 -34 30 -50 65 -30 63 -52 80 -112 90 -58 9 -63 37 -24 121 22 48
34 62 45 58 9 -3 16 -11 16 -16 0 -6 7 -7 16 -4 17 7 59 -33 93 -88 26 -42
101 -80 115 -57 3 5 15 7 26 4 26 -7 26 14 -1 43 l-20 22 23 5 c13 4 37 20 53
37 l29 30 -39 0 c-30 0 -36 3 -27 12 7 7 78 14 194 19 480 22 647 62 268 66
-102 0 -234 6 -293 12 -59 6 -135 8 -168 4 -32 -3 -59 -3 -59 0 0 9 205 104
242 112 18 4 38 10 43 13 6 4 22 7 38 8 20 1 27 -3 27 -17 0 -29 23 -24 78 17
2 1 9 27 16 58 l13 56 -24 0 c-36 0 -17 27 52 75 59 40 59 52 -3 54 -55 2
-148 72 -194 146 -44 71 -49 72 -126 35 -37 -17 -88 -43 -114 -56 -27 -14 -52
-23 -57 -20 -15 10 -20 -20 -10 -65 7 -31 24 -58 56 -91 40 -41 45 -49 33 -63
-9 -11 -22 -14 -37 -10 -50 12 -257 -115 -270 -165 -9 -39 -14 -42 -34 -24
-23 21 -37 11 -72 -49 -19 -34 -25 -61 -30 -140 -5 -84 -9 -103 -34 -142 -19
-31 -35 -45 -50 -45 -22 0 -53 24 -53 41 0 6 -11 25 -25 43 -14 18 -25 37 -25
42 0 5 -15 21 -33 36 -19 14 -42 44 -52 65 -10 21 -28 54 -41 73 -12 19 -27
60 -33 90 -7 30 -18 69 -25 85 -7 17 -18 41 -24 55 -11 26 -27 96 -37 167 -5
31 -24 67 -71 129 -35 47 -64 90 -64 95 0 9 -99 224 -120 261 -6 10 -10 31
-10 47 0 17 -5 33 -10 36 -7 4 -7 13 0 26 6 11 9 23 6 28 -3 4 12 22 33 39
l39 31 23 -57 c92 -232 197 -338 387 -393 96 -27 290 -27 391 1 108 30 197 80
248 139 l23 26 0 -37 c0 -21 -9 -61 -20 -89 -12 -28 -19 -55 -18 -59 2 -4 21
4 43 19 22 14 67 35 100 46 89 30 91 38 75 221 -7 82 -21 191 -31 243 -25 125
-25 127 21 156 60 38 151 36 225 -6 l55 -31 0 -61 c1 -136 53 -303 122 -390
47 -60 75 -84 143 -119 57 -31 67 -32 189 -36 103 -3 143 0 195 14 36 10 69
17 73 16 3 -1 40 31 81 71 74 71 113 133 136 212 33 110 50 185 57 235 3 30
15 71 26 90 13 24 18 50 16 80 -3 40 -7 47 -43 67 -22 12 -60 27 -85 33 -25 6
-58 14 -75 18 -41 10 -43 45 -11 164 26 92 26 98 21 358 -2 146 -9 283 -15
305 -5 22 -10 57 -10 77 0 68 -37 195 -70 243 -32 46 -32 49 -45 234 -7 103
-17 196 -23 207 -13 25 -92 97 -99 91 -2 -3 1 -34 8 -68 9 -48 20 -70 41 -89
35 -30 40 -96 9 -124 -21 -19 -22 -19 -36 84 -4 25 -13 54 -20 65 -7 11 -16
62 -20 112 -6 83 -10 94 -36 119 -35 34 -47 26 -23 -15 15 -25 16 -34 6 -56
l-12 -26 -27 31 c-22 27 -32 31 -59 27 -42 -7 -60 12 -83 91 -30 98 -154 262
-219 289 -19 8 -36 12 -39 9 -3 -2 22 -61 55 -130 83 -172 95 -237 28 -146
-17 22 -35 40 -42 40 -19 0 -54 50 -54 77 0 18 4 24 15 19 8 -3 15 -3 15 0 0
14 -65 98 -131 168 -52 55 -74 74 -80 64 -11 -17 -38 18 -39 48 0 23 -115 154
-134 153 -6 0 -33 -11 -61 -23z m-274 -211 c12 -14 14 -22 6 -27 -13 -8 -29 9
-54 57 l-16 30 24 -20 c13 -11 31 -29 40 -40z m-637 -300 c50 -79 59 -124 12
-62 -23 31 -72 137 -63 137 2 0 25 -34 51 -75z m101 -23 c-6 -7 -35 18 -35 31
0 5 9 2 20 -8 11 -10 18 -20 15 -23z m744 -522 c36 -6 93 -15 125 -21 42 -7
83 -7 146 2 74 10 97 9 151 -4 35 -9 96 -16 136 -15 58 1 77 -3 102 -21 16
-12 55 -33 85 -46 55 -24 88 -55 183 -170 60 -72 73 -96 106 -201 45 -138 75
-324 87 -534 6 -108 15 -214 20 -235 5 -22 10 -45 10 -51 0 -8 -36 -10 -119
-6 -220 9 -381 -30 -478 -118 -32 -27 -62 -50 -67 -50 -6 0 -42 7 -81 15 -87
19 -190 19 -275 0 -60 -13 -67 -13 -89 4 -14 9 -33 28 -43 42 -17 22 -17 27
-2 78 12 39 14 62 6 85 l-9 31 -11 -25 c-6 -14 -11 -19 -11 -12 -1 17 -50 62
-68 62 -10 0 -12 -9 -8 -37 6 -38 6 -38 -12 -16 -10 12 -27 34 -37 49 -28 39
-171 102 -285 126 -155 32 -228 22 -456 -65 -33 -13 -44 -13 -60 -3 -23 15
-45 10 -45 -9 0 -7 -8 -15 -18 -18 -11 -2 -21 -17 -25 -33 -3 -16 -19 -47 -36
-68 -17 -21 -31 -43 -31 -48 0 -24 -47 -78 -67 -78 -13 0 -23 5 -23 10 0 6 -4
10 -10 10 -5 0 -10 -8 -10 -19 0 -13 -10 -20 -32 -24 -51 -10 -169 -36 -190
-43 -21 -6 -21 3 4 128 10 48 14 55 27 45 11 -9 15 -9 18 1 6 17 33 15 33 -3
0 -9 7 -18 16 -22 11 -4 14 -13 10 -29 -8 -29 -2 -30 24 -4 26 26 44 27 30 1
-13 -26 -13 -41 3 -41 6 0 18 12 25 27 16 35 15 43 -2 43 -8 0 -18 5 -22 12
-5 7 -3 8 6 3 7 -4 16 -2 21 6 6 11 11 10 27 -4 25 -23 45 -21 57 5 6 13 20
27 31 33 40 20 54 37 54 66 0 22 5 29 20 29 14 0 20 7 20 23 0 23 20 62 20 40
0 -7 7 -13 15 -13 11 0 13 8 8 33 -9 52 -26 56 -51 12 -10 -18 -11 -16 -12 15
0 40 -16 71 -27 55 -5 -5 -18 -16 -30 -22 -20 -12 -23 -11 -29 12 -3 14 -10
22 -15 19 -5 -3 -9 0 -9 5 0 6 -12 11 -26 11 -15 0 -38 12 -56 30 -34 35 -50
35 -59 -1 -5 -21 -7 -22 -14 -6 -9 22 -25 22 -25 0 0 -9 -3 -13 -7 -10 -3 4
-12 2 -20 -4 -16 -14 -16 -15 -14 126 4 201 55 439 115 530 22 34 160 115 185
108 21 -5 71 8 138 38 23 11 106 37 185 59 79 22 159 45 178 50 19 5 85 14
145 20 154 14 288 30 294 35 8 8 80 6 150 -5z m-1268 -1067 c13 -16 12 -17 -3
-4 -10 7 -18 15 -18 17 0 8 8 3 21 -13z m790 -178 l34 -14 -67 -1 c-37 0 -69
-4 -72 -9 -11 -17 -85 -22 -120 -7 -26 11 -36 12 -40 3 -3 -7 -5 -3 -3 8 2 16
12 21 47 26 88 12 187 9 221 -6z m1565 -157 l64 -11 0 -74 0 -73 74 0 c91 0
92 -1 76 -137 -18 -148 -68 -313 -111 -360 -59 -63 -221 -99 -342 -74 -111 24
-183 82 -246 200 -32 60 -46 113 -56 217 l-6 62 48 -6 c44 -5 47 -4 34 11 -11
15 -11 17 2 17 23 0 47 -11 47 -22 0 -5 -5 -6 -12 -2 -7 4 -8 3 -4 -4 4 -7 20
-12 36 -12 16 0 40 -4 54 -10 36 -13 53 -4 82 46 22 37 25 54 22 104 -3 67 -3
67 66 41 31 -12 76 -71 76 -99 0 -29 35 -29 51 -1 26 49 -34 153 -100 174 -12
3 -19 11 -16 16 8 13 85 11 161 -3z m-1658 -115 c-3 -37 -4 -38 -47 -41 -24
-2 -48 1 -52 5 -14 14 19 52 54 62 48 14 48 14 45 -26z m1238 -8 c-6 -22 -12
-25 -47 -25 -37 0 -40 2 -28 17 14 16 71 44 78 38 2 -2 1 -16 -3 -30z m-970
-29 c28 -27 44 -52 44 -68 0 -32 44 -37 60 -8 11 21 11 21 39 1 27 -20 77
-136 88 -208 6 -41 -39 -164 -79 -215 -98 -125 -396 -155 -589 -58 -43 22
-129 96 -129 112 0 5 -11 26 -24 47 -23 36 -56 129 -56 158 0 9 6 10 26 3 57
-22 212 -6 262 26 l24 16 -51 33 c-27 18 -73 46 -101 61 -50 27 -68 51 -30 39
15 -5 20 -2 20 12 0 20 45 69 68 75 9 2 14 -10 17 -38 4 -52 41 -111 79 -124
16 -5 66 -10 111 -10 76 0 83 2 107 28 33 34 50 76 50 125 -1 20 4 37 10 37 6
0 30 -20 54 -44z m-121 -6 c3 -5 -1 -10 -10 -10 -9 0 -13 5 -10 10 3 6 8 10
10 10 2 0 7 -4 10 -10z m1225 0 c0 -5 -5 -10 -11 -10 -5 0 -7 5 -4 10 3 6 8
10 11 10 2 0 4 -4 4 -10z m-2063 -34 c10 -10 -16 -199 -29 -207 -6 -4 -9 -16
-6 -27 3 -11 3 -24 -1 -28 -13 -18 -70 -44 -84 -38 -10 4 -16 -6 -21 -35 -4
-25 -11 -40 -19 -38 -7 1 -13 -10 -15 -25 -2 -16 -8 -28 -13 -28 -5 0 -9 -8
-10 -17 -1 -15 -2 -15 -8 2 -4 11 -15 37 -24 57 -13 29 -17 66 -17 165 1 141
11 210 31 225 15 10 205 5 216 -6z m803 -1 c0 -8 -7 -15 -15 -15 -8 0 -15 7
-15 15 0 8 7 15 15 15 8 0 15 -7 15 -15z m1228 3 c-6 -18 -28 -21 -28 -4 0 9
7 16 16 16 9 0 14 -5 12 -12z m-1318 -69 c0 -14 -46 -11 -59 4 -6 8 -8 16 -5
20 8 8 64 -13 64 -24z m75 2 c-3 -6 -11 -11 -17 -11 -6 0 -6 6 2 15 14 17 26
13 15 -4z"/>
<path d="M4934 5291 c-33 -8 -137 -62 -142 -73 -2 -5 -10 -8 -17 -8 -8 0 -25
-15 -39 -32 -22 -28 -26 -30 -26 -13 -1 17 -4 16 -25 -10 -14 -16 -30 -42 -36
-57 -12 -30 -33 -40 -22 -11 4 11 3 14 -5 9 -7 -4 -12 -19 -12 -34 0 -19 3
-23 9 -14 6 10 10 9 14 -7 7 -29 32 -27 118 12 41 19 92 40 114 47 72 23 146
62 157 83 8 16 8 22 0 25 -7 2 -9 20 -6 50 l6 47 -21 -25 -21 -25 0 23 c0 12
-3 22 -7 21 -5 -1 -22 -4 -39 -8z"/>
<path d="M2730 5070 c0 -5 5 -10 10 -10 6 0 10 5 10 10 0 6 -4 10 -10 10 -5 0
-10 -4 -10 -10z"/>
<path d="M5270 4344 c0 -16 5 -24 13 -22 18 7 20 35 2 41 -11 5 -15 0 -15 -19z"/>
<path d="M2661 4384 c0 -11 3 -14 6 -6 3 7 2 16 -1 19 -3 4 -6 -2 -5 -13z"/>
<path d="M4833 7028 c20 -25 65 -65 100 -89 l62 -44 -40 49 c-21 26 -66 66
-99 89 l-60 41 37 -46z"/>
<path d="M4814 3545 c-8 -19 4 -82 15 -90 31 -18 47 28 26 77 -9 23 -35 31
-41 13z"/>
<path d="M2783 2692 c-35 -4 -40 -11 -21 -30 10 -10 10 -15 -1 -21 -8 -5 -11
-16 -8 -25 3 -8 2 -18 -3 -21 -11 -7 -11 -83 1 -90 4 -3 5 -13 2 -21 -4 -10 2
-17 16 -21 11 -3 21 -13 21 -22 1 -23 24 -51 43 -51 17 0 47 -48 47 -75 0 -8
5 -15 10 -15 6 0 10 -9 10 -20 0 -10 8 -23 17 -29 10 -5 15 -13 11 -17 -5 -4
-3 -14 4 -21 9 -11 9 -16 -1 -22 -15 -10 10 -33 30 -29 9 2 13 -5 11 -19 -2
-17 3 -22 25 -25 19 -2 27 -8 25 -19 -4 -24 104 -38 121 -15 12 15 49 12 100
-9 10 -4 17 -3 17 4 0 6 -5 11 -11 11 -5 0 -7 5 -4 10 3 6 13 10 21 10 9 0 22
7 30 15 9 8 25 15 36 15 20 0 20 1 5 18 -10 10 -17 24 -17 30 0 6 -11 19 -25
30 -14 11 -25 26 -25 34 0 8 -11 20 -25 26 -14 6 -25 18 -25 27 0 8 -4 15 -9
15 -5 0 -78 68 -163 151 -225 223 -227 225 -265 221z"/>
<path d="M2593 2390 c0 -41 5 -63 22 -85 12 -16 25 -40 29 -53 4 -12 19 -42
33 -65 29 -49 28 -45 -25 88 -22 55 -45 116 -50 135 -9 33 -9 33 -9 -20z"/>
<path d="M4307 2195 c-31 -64 -29 -71 4 -17 30 48 40 72 31 72 -4 0 -20 -25
-35 -55z"/>
<path d="M4367 2232 c-21 -24 -80 -142 -74 -149 5 -4 51 53 78 97 12 20 41
-15 121 -148 34 -56 63 -101 65 -99 8 9 -131 284 -152 299 -21 16 -24 16 -38
0z"/>
<path d="M3646 2065 c-4 -19 -18 -70 -32 -113 -13 -42 -27 -94 -30 -114 l-6
-37 51 -7 c28 -4 54 -11 57 -16 3 -5 12 -4 20 3 9 7 34 10 64 7 54 -5 98 13
72 30 -7 5 -24 7 -36 5 -20 -4 -24 0 -30 35 -3 22 -13 42 -21 46 -9 3 -15 12
-13 19 3 15 -73 177 -83 177 -4 0 -10 -16 -13 -35z"/>
<path d="M1755 2003 c13 -89 35 -188 55 -241 26 -69 80 -175 94 -184 16 -11
76 -10 76 2 0 12 -46 129 -113 285 -47 112 -91 185 -110 185 -5 0 -5 -21 -2
-47z"/>
<path d="M2800 1924 c0 -6 7 -19 15 -30 8 -10 14 -14 14 -9 0 6 -6 19 -14 29
-8 11 -15 15 -15 10z"/>
<path d="M4115 1829 c-4 -6 -5 -12 -2 -15 2 -3 7 2 10 11 7 17 1 20 -8 4z"/>
<path d="M2860 1803 c0 -5 9 -19 20 -33 11 -14 72 -92 135 -175 63 -82 129
-166 147 -185 30 -33 123 -100 138 -100 9 0 40 56 40 74 0 9 -4 16 -10 16 -5
0 -10 -7 -10 -15 0 -9 -10 -19 -22 -24 -54 -20 -127 47 -300 275 -72 96 -133
174 -135 174 -1 0 -3 -3 -3 -7z"/>
<path d="M4090 1729 c0 -5 5 -7 10 -4 6 3 10 8 10 11 0 2 -4 4 -10 4 -5 0 -10
-5 -10 -11z"/>
<path d="M4750 1605 c12 -22 29 -48 38 -57 16 -19 52 -24 52 -8 0 6 -5 10 -12
10 -6 0 -31 21 -55 48 l-45 47 22 -40z"/>
<path d="M4240 1240 c0 -5 5 -10 11 -10 5 0 7 5 4 10 -3 6 -8 10 -11 10 -2 0
-4 -4 -4 -10z"/>
<path d="M4230 1168 c-10 -21 -27 -36 -50 -44 l-35 -12 30 -1 c17 0 35 3 41 7
16 11 44 55 44 69 0 23 -15 13 -30 -19z"/>
<path d="M4079 1146 c17 -21 51 -40 51 -29 0 5 -15 17 -32 28 -29 17 -31 17
-19 1z"/>
<path d="M2309 773 c7 -25 24 -69 68 -174 8 -19 29 -44 46 -54 18 -11 62 -44
98 -75 36 -30 118 -92 182 -138 111 -80 144 -95 257 -122 19 -4 105 -27 190
-49 173 -47 211 -53 423 -75 171 -18 391 -9 562 24 55 11 129 24 165 30 125
22 416 125 481 171 14 10 37 21 51 24 15 4 52 31 83 61 31 30 59 54 63 54 4 0
28 19 54 43 62 55 120 105 191 162 31 25 57 51 57 56 0 21 -67 -26 -200 -141
-123 -107 -211 -170 -253 -180 -23 -6 -103 -29 -177 -51 -163 -49 -288 -79
-332 -79 -18 0 -49 -1 -68 -2 -19 -2 -45 1 -57 5 -18 7 -23 3 -34 -28 -17 -45
-25 -44 -33 3 -4 20 -10 51 -13 67 -6 30 -7 29 -18 -15 l-11 -45 -59 -2 c-384
-12 -576 -3 -720 34 -63 16 -81 19 -155 27 -49 5 -320 95 -385 129 -22 11 -55
32 -75 47 -19 14 -60 45 -90 68 -30 22 -72 56 -92 75 -20 18 -56 50 -80 70
-24 19 -61 52 -82 71 -22 20 -41 36 -42 36 -1 0 1 -12 5 -27z"/>
<path d="M4342 518 c-1 -14 -5 -35 -8 -45 -5 -14 -4 -15 5 -7 7 7 11 26 8 45
-3 28 -4 29 -5 7z"/>
<path d="M4160 443 c0 -5 11 -20 24 -32 21 -20 31 -22 73 -16 33 4 53 13 61
26 7 10 11 19 10 19 -2 0 -25 -7 -52 -15 -46 -14 -51 -14 -82 6 -19 11 -34 17
-34 12z"/>
</g>
</svg>
