<?xml version="1.0" encoding="utf-8"?><!-- Uploaded to: SVG Repo, www.svgrepo.com, Generator: SVG Repo Mixer Tools -->
<svg fill="#000000" width="800px" height="800px" viewBox="0 0 24 24" xmlns="http://www.w3.org/2000/svg"><path d="m12.267 8.09h.068c1.304 0 2.484.533 3.333 1.393.86.815 1.395 1.966 1.395 3.241 0 .047-.001.094-.002.141v-.007.013c0 1.318-.544 2.509-1.419 3.361l-.001.001c-.836.86-2.004 1.393-3.296 1.393-.028 0-.055 0-.083-.001h.004c-.023 0-.051.001-.079.001-1.292 0-2.46-.533-3.295-1.392l-.001-.001c-.86-.836-1.393-2.004-1.393-3.296 0-.028 0-.055.001-.083v.004c0-.023-.001-.051-.001-.079 0-1.292.533-2.46 1.392-3.295l.001-.001c.836-.86 2.004-1.393 3.296-1.393.028 0 .056 0 .084.001h-.004zm3.375 2.999q.107-.054.054-.214c-.332-.58-.794-1.051-1.349-1.383l-.017-.01c-.542-.338-1.193-.553-1.891-.589h-.01c-.005-.001-.012-.001-.018-.001-.039 0-.075.016-.101.042-.026.026-.042.062-.042.101 0 .006 0 .013.001.019v-.001 3.589q0 .054.08.08c.039.015.085.024.133.026h.001zm5.199-11.088h.027c.863 0 1.641.359 2.195.937l.001.001c.576.554.934 1.331.934 2.192v.033-.002 17.678.027c0 .863-.359 1.641-.937 2.195l-.001.001c-.554.578-1.333.938-2.196.938-.01 0-.019 0-.029 0h-17.675c-.008 0-.018 0-.027 0-.863 0-1.641-.359-2.195-.937l-.001-.001c-.578-.554-.938-1.333-.938-2.196 0-.01 0-.02 0-.03v.001-17.678c0-.008 0-.018 0-.027 0-.863.359-1.641.937-2.195l.001-.001c.554-.578 1.333-.938 2.196-.938h.029-.001zm-10.824 4.554v.857.001c0 .036.022.066.053.079h.001c.031.016.068.026.107.026.621-.203 1.335-.32 2.076-.32h.014-.001.013c.742 0 1.456.117 2.125.334l-.049-.014c.043-.003.081-.023.107-.053.031-.026.051-.064.054-.107v-.8c0-.001 0-.003 0-.004 0-.293-.123-.558-.32-.745-.188-.197-.452-.32-.745-.32-.002 0-.003 0-.005 0h-2.408c-.004 0-.008 0-.012 0-.282 0-.534.123-.707.319l-.001.001c-.185.193-.298.455-.298.743v.004zm-4.554 1.981c-.196.16-.32.401-.32.671v.027-.001.005c0 .293.123.558.32.745l.429.429q.107.107.214-.054.375-.48.777-.91c.28-.293.587-.557.918-.787l.02-.013q.16-.107.054-.214l-.429-.429c-.196-.167-.453-.268-.733-.268-.006 0-.012 0-.017 0h.001c-.005 0-.011 0-.017 0-.28 0-.537.101-.735.269l.002-.001zm6.8 13.07h.068c1.238 0 2.398-.338 3.391-.928l-.031.017c1.027-.604 1.86-1.437 2.446-2.432l.017-.032c.575-.959.914-2.117.914-3.353 0-.017 0-.034 0-.051v.003c0-.016 0-.035 0-.053 0-1.234-.339-2.39-.928-3.378l.017.03c-.604-1.027-1.437-1.86-2.432-2.446l-.032-.017c-.958-.572-2.113-.911-3.346-.911-.019 0-.038 0-.058 0h.003c-.016 0-.036 0-.055 0-1.234 0-2.389.338-3.377.927l.03-.017c-1.032.608-1.866 1.451-2.446 2.458l-.017.033c-.571.966-.909 2.128-.909 3.369v.034-.002.041c0 1.23.338 2.38.927 3.364l-.017-.03c.604 1.027 1.437 1.86 2.432 2.446l.032.017c.954.573 2.105.911 3.335.911h.04-.002z"/></svg>