<?xml version="1.0"?>
<svg xmlns="http://www.w3.org/2000/svg" width="1352" height="364" viewBox="0 0 1352 364" fill="none">
<path d="M17.5365 338.024C12.1048 334.92 7.75952 330.575 4.65571 325.143C1.5519 319.712 0 313.659 0 306.986C0 300.313 1.5519 294.416 4.65571 288.829C7.75952 283.397 12.1048 279.052 17.5365 275.948C22.9682 272.844 28.8653 271.292 35.2281 271.292C40.1942 271.292 45.0052 272.224 49.3505 273.931C53.6958 275.638 57.4204 278.276 60.2138 281.38L54.4718 287.122C52.2991 284.484 49.5056 282.466 46.0915 280.914C42.6773 279.517 39.1079 278.741 35.2281 278.741C30.4172 278.741 26.0719 279.828 21.8818 282.156C17.6917 284.484 14.4326 287.743 11.9496 291.933C9.46654 296.123 8.22507 301.089 8.22507 306.521C8.22507 312.107 9.46654 316.918 11.9496 321.108C14.4326 325.299 17.8469 328.558 21.8818 330.885C26.0719 333.213 30.5724 334.3 35.2281 334.3C39.7287 334.3 43.6085 333.524 46.7123 332.127C49.8161 330.73 52.4543 328.868 54.7822 326.385C56.4893 324.678 57.7308 322.505 58.8171 319.867C59.9034 317.384 60.369 314.59 60.6794 311.642H35.5385V304.193H68.2838C68.5941 305.9 68.7493 307.607 68.7493 309.159C68.7493 313.349 68.1286 317.384 66.7319 321.419C65.3351 325.454 63.3176 328.868 60.369 331.817C54.0062 338.645 45.6259 342.059 35.3834 342.059C28.8654 342.68 22.9682 341.128 17.5365 338.024Z" fill="#656C73"/>
<path d="M86.4404 339.42C82.7159 337.247 79.9225 334.143 77.7498 330.419C75.7323 326.539 74.646 322.349 74.646 317.538C74.646 312.882 75.7323 308.537 77.7498 304.657C79.7673 300.778 82.7159 297.829 86.4404 295.656C90.165 293.484 94.3551 292.397 98.8557 292.397C103.511 292.397 107.702 293.484 111.426 295.656C115.151 297.829 118.099 300.933 120.117 304.657C122.134 308.537 123.221 312.727 123.221 317.538C123.221 322.194 122.134 326.539 120.117 330.419C118.099 334.299 115.151 337.247 111.426 339.42C107.702 341.593 103.511 342.679 98.8557 342.679C94.3551 342.679 90.165 341.593 86.4404 339.42ZM106.926 333.212C109.409 331.816 111.426 329.643 112.823 327.005C114.375 324.366 114.995 321.107 114.995 317.693C114.995 314.124 114.22 311.02 112.823 308.382C111.271 305.744 109.409 303.571 106.926 302.174C104.443 300.777 101.804 300.002 98.8557 300.002C96.0622 300.002 93.424 300.777 90.941 302.174C88.4579 303.571 86.4405 305.744 85.0438 308.382C83.4919 311.02 82.8711 314.279 82.8711 317.693C82.8711 321.263 83.6471 324.366 85.0438 327.005C86.5957 329.643 88.4579 331.816 90.941 333.212C93.424 334.609 96.0622 335.385 98.8557 335.385C101.804 335.385 104.443 334.609 106.926 333.212Z" fill="#656C73"/>
<path d="M140.447 339.42C136.723 337.247 133.929 334.143 131.757 330.419C129.739 326.539 128.653 322.349 128.653 317.538C128.653 312.882 129.739 308.537 131.757 304.657C133.774 300.778 136.723 297.829 140.447 295.656C144.172 293.484 148.362 292.397 152.863 292.397C157.518 292.397 161.708 293.484 165.433 295.656C169.158 297.829 172.106 300.933 174.124 304.657C176.141 308.537 177.227 312.727 177.227 317.538C177.227 322.194 176.141 326.539 174.124 330.419C172.106 334.299 169.158 337.247 165.433 339.42C161.708 341.593 157.518 342.679 152.863 342.679C148.362 342.679 144.172 341.593 140.447 339.42ZM160.932 333.212C163.415 331.816 165.433 329.643 166.83 327.005C168.382 324.366 169.002 321.107 169.002 317.693C169.002 314.124 168.226 311.02 166.83 308.382C165.278 305.744 163.415 303.571 160.932 302.174C158.449 300.777 155.811 300.002 152.863 300.002C150.069 300.002 147.431 300.777 144.948 302.174C142.465 303.571 140.447 305.744 139.051 308.382C137.499 311.02 136.878 314.279 136.878 317.693C136.878 321.263 137.654 324.366 139.051 327.005C140.603 329.643 142.465 331.816 144.948 333.212C147.431 334.609 150.069 335.385 152.863 335.385C155.811 335.385 158.449 334.609 160.932 333.212Z" fill="#656C73"/>
<path d="M192.281 359.129C188.711 356.336 186.228 353.232 184.987 349.662L192.436 346.559C193.367 349.352 195.074 351.68 197.557 353.387C200.04 355.094 202.833 356.025 206.248 356.025C211.214 356.025 215.094 354.629 217.887 351.68C220.525 348.731 221.922 344.696 221.922 339.42V334.299H221.612C220.06 336.782 217.887 338.644 215.094 340.351C212.3 341.903 209.041 342.679 205.317 342.679C201.282 342.679 197.557 341.593 194.143 339.42C190.729 337.247 187.935 334.299 185.918 330.419C183.9 326.539 182.814 322.349 182.814 317.538C182.814 312.727 183.9 308.537 185.918 304.657C187.935 300.778 190.729 297.829 194.143 295.656C197.557 293.484 201.282 292.397 205.317 292.397C208.886 292.397 212.145 293.173 215.094 294.725C217.887 296.277 220.215 298.294 221.612 300.778H221.922V293.949H229.681V339.265C229.681 344.541 228.595 348.887 226.578 352.456C224.56 356.025 221.767 358.819 218.197 360.526C214.628 362.233 210.748 363.164 206.248 363.164C200.506 363.319 195.85 361.923 192.281 359.129ZM214.162 333.212C216.49 331.816 218.353 329.798 219.904 327.005C221.301 324.366 222.077 321.107 222.077 317.538C222.077 313.969 221.301 310.71 219.904 308.071C218.508 305.433 216.645 303.261 214.162 301.864C211.835 300.467 209.196 299.691 206.403 299.691C203.609 299.691 200.971 300.467 198.643 301.864C196.316 303.261 194.453 305.433 192.901 308.071C191.505 310.71 190.729 313.969 190.729 317.538C190.729 321.107 191.505 324.366 192.901 327.005C194.298 329.643 196.16 331.816 198.643 333.212C200.971 334.609 203.609 335.385 206.403 335.385C209.196 335.385 211.835 334.609 214.162 333.212Z" fill="#656C73"/>
<path d="M248.615 272.998H240.545V341.127H248.615V272.998Z" fill="#656C73"/>
<path d="M267.702 339.42C264.133 337.247 261.339 334.299 259.322 330.419C257.304 326.539 256.218 322.349 256.218 317.538C256.218 313.038 257.149 308.692 259.011 304.968C260.873 301.088 263.667 298.139 267.081 295.811C270.65 293.484 274.685 292.397 279.186 292.397C283.686 292.397 287.721 293.484 291.291 295.501C294.705 297.518 297.343 300.467 299.206 304.192C301.068 307.916 301.999 312.262 301.999 317.073C301.999 318.004 301.999 318.624 301.844 318.935H264.288C264.443 322.504 265.219 325.453 266.926 327.936C268.478 330.419 270.495 332.281 272.823 333.368C275.151 334.609 277.634 335.23 280.272 335.23C286.17 335.23 290.825 332.281 294.084 326.539L301.223 329.953C299.206 333.833 296.412 336.782 292.843 339.11C289.273 341.437 284.928 342.524 279.962 342.524C275.461 342.679 271.426 341.593 267.702 339.42ZM293.619 312.262C293.463 310.399 292.998 308.382 292.067 306.52C291.136 304.657 289.584 302.95 287.411 301.709C285.238 300.312 282.6 299.691 279.341 299.691C275.772 299.691 272.668 300.778 270.03 303.105C267.392 305.433 265.84 308.382 265.064 312.262H293.619Z" fill="#656C73"/>
<path d="M333.193 272.998H353.833C360.817 272.998 366.869 274.395 372.146 277.344C377.422 280.292 381.302 284.172 384.095 289.449C386.889 294.57 388.285 300.467 388.285 307.14C388.285 313.813 386.889 319.711 384.095 324.832C381.302 329.953 377.267 333.988 372.146 336.937C366.869 339.885 360.817 341.282 353.833 341.282H333.193V272.998ZM353.833 333.523C361.903 333.523 368.266 331.195 372.922 326.539C377.577 321.883 379.905 315.365 379.905 307.14C379.905 298.76 377.577 292.397 372.922 287.741C368.266 283.086 361.903 280.758 353.833 280.758H341.263V333.523H353.833Z" fill="#656C73"/>
<path d="M406.599 339.42C403.03 337.247 400.236 334.299 398.219 330.419C396.201 326.539 395.115 322.349 395.115 317.538C395.115 313.038 396.046 308.692 397.908 304.968C399.771 301.088 402.564 298.139 405.978 295.811C409.548 293.484 413.583 292.397 418.083 292.397C422.584 292.397 426.619 293.484 430.188 295.501C433.602 297.518 436.24 300.467 438.103 304.192C439.965 307.916 440.896 312.262 440.896 317.073C440.896 318.004 440.896 318.624 440.741 318.935H403.185C403.34 322.504 404.116 325.453 405.823 327.936C407.375 330.419 409.393 332.281 411.72 333.368C414.048 334.609 416.531 335.23 419.169 335.23C425.067 335.23 429.722 332.281 432.981 326.539L440.12 329.953C438.103 333.833 435.309 336.782 431.74 339.11C428.17 341.437 423.825 342.524 418.859 342.524C414.203 342.679 410.168 341.593 406.599 339.42ZM432.516 312.262C432.361 310.399 431.895 308.382 430.964 306.52C430.033 304.657 428.481 302.95 426.308 301.709C424.136 300.312 421.497 299.691 418.238 299.691C414.669 299.691 411.565 300.778 408.927 303.105C406.289 305.433 404.737 308.382 403.961 312.262H432.516Z" fill="#656C73"/>
<path d="M442.914 293.949H451.76L466.193 331.66H466.348L481.091 293.949H489.627L470.228 341.127H462.003L442.914 293.949Z" fill="#656C73"/>
<path d="M504.367 339.42C500.798 337.247 498.005 334.299 495.987 330.419C493.97 326.539 492.883 322.349 492.883 317.538C492.883 313.038 493.814 308.692 495.677 304.968C497.539 301.088 500.332 298.139 503.747 295.811C507.316 293.484 511.351 292.397 515.851 292.397C520.352 292.397 524.387 293.484 527.956 295.501C531.37 297.518 534.009 300.467 535.871 304.192C537.733 307.916 538.664 312.262 538.664 317.073C538.664 318.004 538.664 318.624 538.509 318.935H500.953C501.108 322.504 501.884 325.453 503.591 327.936C505.143 330.419 507.161 332.281 509.489 333.368C511.817 334.609 514.3 335.23 516.938 335.23C522.835 335.23 527.491 332.281 530.75 326.539L537.889 329.953C535.871 333.833 533.078 336.782 529.508 339.11C525.939 341.437 521.593 342.524 516.627 342.524C512.127 342.679 507.937 341.593 504.367 339.42ZM530.284 312.262C530.129 310.399 529.663 308.382 528.732 306.52C527.801 304.657 526.249 302.95 524.077 301.709C521.904 300.312 519.266 299.691 516.007 299.691C512.437 299.691 509.334 300.778 506.695 303.105C504.057 305.433 502.505 308.382 501.729 312.262H530.284Z" fill="#656C73"/>
<path d="M555.114 272.998H547.044V341.127H555.114V272.998Z" fill="#656C73"/>
<path d="M574.514 339.42C570.789 337.247 567.996 334.143 565.823 330.419C563.806 326.539 562.719 322.349 562.719 317.538C562.719 312.882 563.806 308.537 565.823 304.657C567.841 300.778 570.789 297.829 574.514 295.656C578.238 293.484 582.273 292.397 586.929 292.397C591.585 292.397 595.775 293.484 599.499 295.656C603.224 297.829 606.173 300.933 608.19 304.657C610.207 308.537 611.294 312.727 611.294 317.538C611.294 322.194 610.207 326.539 608.19 330.419C606.173 334.299 603.224 337.247 599.499 339.42C595.775 341.593 591.585 342.679 586.929 342.679C582.273 342.679 578.238 341.593 574.514 339.42ZM594.999 333.212C597.482 331.816 599.499 329.643 600.896 327.005C602.448 324.366 603.069 321.107 603.069 317.693C603.069 314.124 602.293 311.02 600.896 308.382C599.344 305.744 597.482 303.571 594.999 302.174C592.516 300.777 589.878 300.002 586.929 300.002C584.135 300.002 581.497 300.777 579.014 302.174C576.531 303.571 574.514 305.744 573.117 308.382C571.565 311.02 570.944 314.279 570.944 317.693C570.944 321.263 571.72 324.366 573.117 327.005C574.669 329.643 576.531 331.816 579.014 333.212C581.497 334.609 584.135 335.385 586.929 335.385C589.878 335.385 592.516 334.609 594.999 333.212Z" fill="#656C73"/>
<path d="M618.589 293.949H626.349V300.933H626.659C628.211 298.45 630.384 296.432 633.177 294.88C635.97 293.328 639.385 292.397 643.109 292.397C647.144 292.397 650.869 293.484 654.283 295.656C657.697 297.829 660.491 300.778 662.508 304.657C664.526 308.537 665.612 312.727 665.612 317.538C665.612 322.349 664.526 326.539 662.508 330.419C660.491 334.299 657.697 337.247 654.283 339.42C650.869 341.593 647.144 342.679 643.109 342.679C639.385 342.679 635.97 341.903 633.177 340.196C630.228 338.644 628.056 336.471 626.659 333.988H626.349L626.659 340.506V361.612H618.589V293.949ZM649.782 333.212C652.11 331.816 654.128 329.643 655.524 327.005C656.921 324.366 657.697 321.107 657.697 317.693C657.697 314.124 656.921 311.02 655.524 308.382C654.128 305.744 652.265 303.571 649.782 302.174C647.454 300.777 644.816 300.002 642.023 300.002C639.229 300.002 636.591 300.777 634.263 302.174C631.935 303.571 629.918 305.588 628.521 308.382C627.125 311.02 626.349 314.279 626.349 317.848C626.349 321.418 627.125 324.522 628.521 327.315C629.918 330.108 631.78 332.126 634.263 333.523C636.591 334.919 639.229 335.695 642.023 335.695C644.816 335.695 647.299 334.609 649.782 333.212Z" fill="#656C73"/>
<path d="M684.544 339.42C680.975 337.247 678.181 334.299 676.164 330.419C674.146 326.539 673.06 322.349 673.06 317.538C673.06 313.038 673.991 308.692 675.853 304.968C677.716 301.088 680.509 298.139 683.923 295.811C687.493 293.484 691.528 292.397 696.028 292.397C700.529 292.397 704.563 293.484 708.133 295.501C711.547 297.518 714.185 300.467 716.048 304.192C717.91 307.916 718.841 312.262 718.841 317.073C718.841 318.004 718.841 318.624 718.686 318.935H681.13C681.285 322.504 682.061 325.453 683.768 327.936C685.32 330.419 687.337 332.281 689.665 333.368C691.993 334.609 694.476 335.23 697.114 335.23C703.012 335.23 707.667 332.281 710.926 326.539L718.065 329.953C716.048 333.833 713.254 336.782 709.685 339.11C706.115 341.437 701.77 342.524 696.804 342.524C692.303 342.679 688.113 341.593 684.544 339.42ZM710.461 312.262C710.305 310.399 709.84 308.382 708.909 306.52C707.978 304.657 706.426 302.95 704.253 301.709C702.08 300.312 699.442 299.691 696.183 299.691C692.614 299.691 689.51 300.778 687.027 303.105C684.389 305.433 682.837 308.382 682.061 312.262H710.461Z" fill="#656C73"/>
<path d="M727.222 293.949H734.982V301.709H735.292C736.223 299.07 737.93 296.898 740.724 295.191C743.517 293.484 746.311 292.552 748.949 292.552C750.967 292.552 752.829 292.863 754.536 293.484V302.174C752.829 301.243 750.656 300.778 747.863 300.778C745.69 300.778 743.517 301.398 741.655 302.795C739.793 304.037 738.241 305.899 736.999 308.071C735.913 310.244 735.292 312.572 735.292 315.21V341.593H727.222V293.949Z" fill="#656C73"/>
<path d="M789.92 340.506C786.661 339.11 783.868 336.937 781.385 334.299C778.902 331.505 777.195 328.246 776.108 324.211L783.868 321.107C784.954 325.142 786.972 328.557 789.92 331.04C792.869 333.678 796.283 334.919 800.163 334.919C804.198 334.919 807.457 333.833 810.25 331.66C813.044 329.488 814.285 326.694 814.285 322.97C814.285 319.866 813.199 317.228 810.871 315.055C808.543 313.038 804.819 311.02 799.542 309.313L795.197 307.761C790.386 306.054 786.506 303.726 783.402 300.933C780.298 298.139 778.902 294.26 778.902 289.293C778.902 286.034 779.833 283.086 781.54 280.292C783.247 277.499 785.73 275.326 788.989 273.619C792.093 271.912 795.662 271.136 799.542 271.136C803.422 271.136 806.991 271.912 809.94 273.309C812.889 274.706 815.216 276.568 816.924 278.585C818.631 280.758 819.872 282.775 820.493 284.793L813.044 288.052C812.268 285.569 810.871 283.551 808.698 281.689C806.526 279.827 803.577 278.896 799.853 278.896C796.438 278.896 793.335 279.827 790.851 281.844C788.368 283.862 787.127 286.345 787.127 289.293C787.127 291.932 788.213 294.104 790.231 295.811C792.248 297.519 795.507 299.07 799.697 300.467L804.043 302.019C809.785 304.037 814.285 306.675 817.544 309.934C820.803 313.038 822.51 317.383 822.51 322.815C822.51 327.16 821.424 330.884 819.096 333.833C816.768 336.782 813.975 338.954 810.561 340.351C807.146 341.748 803.577 342.524 799.853 342.524C796.438 342.679 793.179 342.058 789.92 340.506Z" fill="#656C73"/>
<path d="M842.218 341.748C840.666 341.127 839.27 340.196 838.028 339.11C836.787 337.868 835.856 336.471 835.235 334.764C834.614 333.057 834.304 331.195 834.304 328.867V301.243H825.923V293.949H834.304V279.827H842.373V293.949H854.013V301.243H842.373V327.005C842.373 329.798 842.839 331.816 843.925 333.057C845.012 334.454 846.719 335.23 848.892 335.23C850.909 335.23 852.616 334.764 854.013 333.833V341.593C852.926 341.903 851.995 342.213 851.064 342.369C850.133 342.524 848.892 342.679 847.34 342.679C845.477 342.679 843.77 342.369 842.218 341.748Z" fill="#656C73"/>
<path d="M866.584 337.713C863.635 334.299 862.083 329.643 862.083 323.746V294.104H870.153V322.504C870.153 331.195 874.033 335.54 881.792 335.54C884.43 335.54 886.758 334.764 888.776 333.368C890.793 331.971 892.5 329.953 893.587 327.625C894.673 325.298 895.294 322.815 895.294 320.176V294.104H903.364V341.282H895.759V334.299H895.449C894.052 336.782 891.88 338.799 889.086 340.351C886.293 342.058 883.189 342.834 879.93 342.834C874.033 342.679 869.532 340.972 866.584 337.713Z" fill="#656C73"/>
<path d="M922.297 339.42C918.882 337.247 916.089 334.299 914.072 330.419C912.054 326.539 910.968 322.349 910.968 317.538C910.968 312.727 912.054 308.537 914.072 304.657C916.089 300.777 918.882 297.829 922.297 295.656C925.711 293.484 929.435 292.397 933.47 292.397C937.195 292.397 940.454 293.173 943.403 294.88C946.351 296.432 948.524 298.45 949.921 300.933H950.231L949.921 294.415V272.998H957.99V341.127H950.386V334.143H950.076C948.679 336.626 946.351 338.644 943.558 340.351C940.609 341.903 937.35 342.834 933.626 342.834C929.435 342.679 925.711 341.592 922.297 339.42ZM942.471 333.212C944.799 331.816 946.817 329.643 948.213 327.005C949.61 324.211 950.386 321.107 950.386 317.538C950.386 313.969 949.61 310.71 948.213 308.071C946.817 305.433 944.954 303.261 942.471 301.864C940.143 300.467 937.505 299.691 934.712 299.691C931.918 299.691 929.28 300.467 926.952 301.864C924.624 303.261 922.607 305.433 921.21 308.071C919.814 310.71 919.038 313.969 919.038 317.383C919.038 320.952 919.814 324.056 921.21 326.694C922.607 329.333 924.469 331.505 926.952 332.902C929.28 334.299 931.918 335.075 934.712 335.075C937.505 335.385 940.143 334.609 942.471 333.212Z" fill="#656C73"/>
<path d="M977.234 339.42C973.664 337.247 970.871 334.299 968.853 330.419C966.836 326.539 965.75 322.349 965.75 317.538C965.75 313.038 966.681 308.692 968.543 304.968C970.405 301.088 973.199 298.139 976.613 295.811C980.182 293.484 984.217 292.397 988.718 292.397C993.218 292.397 997.253 293.484 1000.82 295.501C1004.24 297.518 1006.88 300.467 1008.74 304.192C1010.6 307.916 1011.53 312.262 1011.53 317.073C1011.53 318.004 1011.53 318.624 1011.38 318.935H973.82C973.975 322.504 974.751 325.453 976.458 327.936C978.01 330.419 980.027 332.281 982.355 333.368C984.683 334.609 987.166 335.23 989.804 335.23C995.701 335.23 1000.36 332.281 1003.62 326.539L1010.75 329.953C1008.74 333.833 1005.94 336.782 1002.37 339.11C998.805 341.437 994.46 342.524 989.494 342.524C984.993 342.679 980.803 341.593 977.234 339.42ZM1003.15 312.262C1003 310.399 1002.53 308.382 1001.6 306.52C1000.67 304.657 999.116 302.95 996.943 301.709C994.77 300.312 992.132 299.691 988.873 299.691C985.304 299.691 982.2 300.778 979.717 303.105C977.078 305.433 975.527 308.382 974.751 312.262H1003.15Z" fill="#656C73"/>
<path d="M1019.91 293.949H1027.67V300.933H1027.98C1029.38 298.45 1031.39 296.432 1034.34 294.88C1037.14 293.173 1040.24 292.397 1043.5 292.397C1049.24 292.397 1053.74 294.104 1056.69 297.518C1059.64 300.933 1061.19 305.433 1061.19 311.33V341.282H1053.12V312.572C1053.12 304.036 1049.09 299.846 1041.17 299.846C1038.69 299.846 1036.36 300.622 1034.34 302.019C1032.33 303.416 1030.77 305.433 1029.69 307.761C1028.6 310.089 1027.98 312.572 1027.98 315.21V341.282H1019.91V293.949Z" fill="#656C73"/>
<path d="M1082.14 341.748C1080.59 341.127 1079.19 340.196 1077.95 339.11C1076.71 337.868 1075.78 336.471 1075.16 334.764C1074.54 333.057 1074.23 331.195 1074.23 328.867V301.243H1065.85V293.949H1074.23V279.827H1082.3V293.949H1093.94V301.243H1082.3V327.005C1082.3 329.798 1082.76 331.816 1083.85 333.057C1084.94 334.454 1086.64 335.23 1088.82 335.23C1090.83 335.23 1092.54 334.764 1093.94 333.833V341.593C1092.85 341.903 1091.92 342.213 1090.99 342.369C1090.06 342.524 1088.82 342.679 1087.26 342.679C1085.56 342.679 1083.85 342.369 1082.14 341.748Z" fill="#656C73"/>
<path d="M1137.24 338.023C1131.8 334.92 1127.61 330.574 1124.51 325.143C1121.41 319.711 1119.85 313.658 1119.85 306.985C1119.85 300.312 1121.41 294.415 1124.51 288.828C1127.61 283.396 1131.8 279.051 1137.24 275.947C1142.67 272.843 1148.56 271.291 1155.08 271.291C1160.2 271.291 1164.86 272.223 1169.2 274.24C1173.39 276.102 1177.12 278.896 1180.07 282.465L1174.33 288.052C1171.84 284.948 1168.89 282.62 1165.79 281.224C1162.69 279.827 1159.12 279.051 1155.08 279.051C1150.27 279.051 1145.62 280.137 1141.58 282.465C1137.39 284.793 1134.13 288.052 1131.65 292.242C1129.17 296.432 1127.92 301.398 1127.92 306.83C1127.92 312.417 1129.17 317.228 1131.65 321.418C1134.13 325.608 1137.39 328.867 1141.58 331.195C1145.77 333.523 1150.27 334.609 1155.08 334.609C1163.46 334.609 1170.45 331.195 1176.19 324.367L1181.93 330.109C1178.83 333.833 1174.95 336.782 1170.29 338.954C1165.64 341.127 1160.51 342.213 1154.93 342.213C1148.72 342.679 1142.67 341.127 1137.24 338.023Z" fill="#656C73"/>
<path d="M1198.07 272.998H1190V341.127H1198.07V272.998Z" fill="#656C73"/>
<path d="M1213.12 337.713C1210.17 334.299 1208.62 329.643 1208.62 323.746V294.104H1216.69V322.504C1216.69 331.195 1220.57 335.54 1228.33 335.54C1230.97 335.54 1233.3 334.764 1235.31 333.368C1237.33 331.971 1239.04 329.953 1240.13 327.625C1241.21 325.298 1241.83 322.815 1241.83 320.176V294.104H1249.9V341.282H1242.3V334.299H1241.99C1240.59 336.782 1238.42 338.799 1235.62 340.351C1232.83 342.058 1229.73 342.834 1226.47 342.834C1220.57 342.679 1216.23 340.972 1213.12 337.713Z" fill="#656C73"/>
<path d="M1275.35 340.351C1272.4 338.799 1270.23 336.626 1268.84 334.143H1268.53V341.127H1260.77V272.998H1268.84V294.415L1268.53 300.933H1268.84C1270.39 298.45 1272.56 296.432 1275.35 294.88C1278.15 293.328 1281.56 292.397 1285.29 292.397C1289.32 292.397 1293.05 293.484 1296.46 295.656C1299.87 297.829 1302.67 300.777 1304.68 304.657C1306.7 308.537 1307.79 312.727 1307.79 317.538C1307.79 322.349 1306.7 326.539 1304.68 330.419C1302.67 334.299 1299.87 337.247 1296.46 339.42C1293.05 341.592 1289.32 342.679 1285.29 342.679C1281.56 342.679 1278.3 341.903 1275.35 340.351ZM1291.96 333.212C1294.29 331.816 1296.3 329.643 1297.7 327.005C1299.1 324.366 1299.87 321.107 1299.87 317.693C1299.87 314.124 1299.1 311.02 1297.7 308.382C1296.3 305.744 1294.44 303.571 1291.96 302.174C1289.63 300.777 1286.99 300.002 1284.2 300.002C1281.41 300.002 1278.77 300.777 1276.44 302.174C1274.11 303.571 1272.09 305.588 1270.7 308.382C1269.3 311.02 1268.53 314.279 1268.53 317.848C1268.53 321.418 1269.3 324.522 1270.7 327.315C1272.09 330.108 1273.96 332.126 1276.44 333.523C1278.77 334.919 1281.41 335.695 1284.2 335.695C1286.99 335.385 1289.48 334.609 1291.96 333.212Z" fill="#656C73"/>
<path d="M1319.43 338.954C1316.01 336.471 1313.53 333.212 1312.13 329.488L1319.27 326.384C1320.51 329.333 1322.38 331.66 1324.7 333.212C1327.03 334.764 1329.52 335.54 1332.31 335.54C1335.41 335.54 1337.9 334.919 1339.91 333.523C1341.93 332.126 1342.86 330.574 1342.86 328.712C1342.86 326.85 1342.09 325.298 1340.69 324.211C1339.14 322.97 1336.65 321.883 1333.08 321.107L1326.57 319.556C1323 318.78 1320.05 317.228 1317.41 315.055C1314.93 312.882 1313.69 310.089 1313.69 306.52C1313.69 303.571 1314.46 301.088 1316.17 299.07C1317.88 296.898 1320.05 295.346 1322.84 294.26C1325.64 293.173 1328.74 292.708 1332 292.708C1336.03 292.708 1339.76 293.639 1343.02 295.501C1346.28 297.363 1348.76 300.002 1350.16 303.416L1343.02 306.52C1341.93 304.192 1340.53 302.485 1338.36 301.398C1336.34 300.312 1334.02 299.846 1331.53 299.846C1329.05 299.846 1326.88 300.467 1324.86 301.709C1322.84 302.95 1321.91 304.502 1321.91 306.364C1321.91 308.071 1322.53 309.313 1323.93 310.244C1325.17 311.175 1327.34 312.106 1330.14 312.882L1337.12 314.589C1341.78 315.831 1345.34 317.538 1347.67 320.021C1350 322.349 1351.09 325.298 1351.09 328.557C1351.09 331.35 1350.31 333.833 1348.76 336.006C1347.21 338.178 1344.88 340.041 1342.09 341.282C1339.29 342.524 1336.03 343.145 1332.31 343.145C1327.19 342.679 1323 341.437 1319.43 338.954Z" fill="#656C73"/>
<path d="M576.848 91.4362L638.085 55.9993C652.384 47.6063 657.358 29.2662 648.965 14.9671C640.572 0.668048 622.232 -4.30554 607.932 4.08739L502.244 65.014L576.848 91.4362Z" fill="#EA4335"/>
<path d="M622.854 182.204C633.112 182.204 643.37 176.92 648.965 167.283C657.358 152.984 652.385 134.644 638.085 126.251L532.397 65.3249C518.098 56.9319 499.757 61.9055 491.364 76.2046C482.972 90.5037 487.945 108.844 502.244 117.237L607.933 178.163C612.596 180.961 617.88 182.204 622.854 182.204Z" fill="#4285F4"/>
<path d="M727.921 182.204C732.894 182.204 738.179 180.961 742.841 178.163L848.53 117.237L774.859 90.1927L712.689 125.94C698.39 134.333 693.416 152.674 701.809 166.973C707.405 176.92 717.663 182.204 727.921 182.204Z" fill="#FBBC04"/>
<path d="M833.611 121.278C843.869 121.278 854.127 115.993 859.722 106.357C868.115 92.0578 863.142 73.7177 848.843 65.3247L743.154 4.39821C728.855 -3.99472 710.515 0.978964 702.122 15.278C693.729 29.5771 698.702 47.9171 713.001 56.31L818.69 117.237C823.353 120.034 828.637 121.278 833.611 121.278Z" fill="#34A853"/>
</svg>
